# xmcd
#
# Track frame offsets: 
#        150
#        10417
#        24880
#        40716
#        51285
#        70320
#        84574
#        102917
#        121523
#        133864
#        149678
#        159845
#
# Disc length: 2295 seconds
#
# Revision: 0
# Processed by: cddbd v1.5.2PL0 Copyright (c) Steve Scherf et al.
# Submitted via: ExactAudioCopy v1.0b1
#
DISCID=9808f50c
DTITLE=Matuška Waldemar - Waldemar
DYEAR=1972
DGENRE=Country
TTITLE0=Ó, hřebíčku zahradnický
TTITLE1=Mám tam boudu dřevěnou
TTITLE2=Prstýnek z lásky
TTITLE3=Ay, ay, ay,
TTITLE4=Tam kde jsem jaro měl rád
TTITLE5=John Brown
TTITLE6=MOdrý sarafán
TTITLE7=Děvče, děvče
TTITLE8=Loch Lomond
TTITLE9=Avignonský most
TTITLE10=Já mám jódlování rád
TTITLE11=Dobrů noc
EXTD=
EXTT0=
EXTT1=
EXTT2=
EXTT3=
EXTT4=
EXTT5=
EXTT6=
EXTT7=
EXTT8=
EXTT9=
EXTT10=
EXTT11=
PLAYORDER=
